<mxfile host="app.diagrams.net" modified="2022-11-08T11:52:26.269Z" agent="5.0 (X11)" etag="zvzyOPNQ5c6r_3BMAMie" version="20.5.1" type="github">
  <diagram id="G2iqE2huB1lkAHuBHkVa" name="Page-1">
    <mxGraphModel dx="1742" dy="1108" grid="1" gridSize="10" guides="1" tooltips="1" connect="1" arrows="1" fold="1" page="1" pageScale="1" pageWidth="850" pageHeight="1100" math="0" shadow="0">
      <root>
        <mxCell id="0" />
        <mxCell id="1" parent="0" />
        <mxCell id="O5haTxmpRMXudHB7i6Xs-1" value="HelloWorld" style="rounded=0;whiteSpace=wrap;html=1;" parent="1" vertex="1">
          <mxGeometry x="360" y="580" width="120" height="60" as="geometry" />
        </mxCell>
      </root>
    </mxGraphModel>
  </diagram>
</mxfile>
